<svg width="20" height="21" viewBox="0 0 20 21" fill="none" xmlns="http://www.w3.org/2000/svg">
<path d="M19 9.90603C19.0034 11.2259 18.6951 12.5279 18.1 13.706C17.3944 15.1178 16.3098 16.3052 14.9674 17.1353C13.6251 17.9654 12.0782 18.4054 10.5 18.406C9.18013 18.4095 7.87812 18.1011 6.7 17.506L1 19.406L2.9 13.706C2.30493 12.5279 1.99656 11.2259 2 9.90603C2.00061 8.32779 2.44061 6.78089 3.27072 5.43858C4.10083 4.09628 5.28825 3.0116 6.7 2.30603C7.87812 1.71097 9.18013 1.40259 10.5 1.40603H11C13.0843 1.52103 15.053 2.4008 16.5291 3.87689C18.0052 5.35299 18.885 7.32169 19 9.40603V9.90603Z" stroke="#01012B" stroke-width="2" stroke-linecap="round" stroke-linejoin="round"/>
</svg>
