<svg width="40" height="41" viewBox="0 0 40 41" fill="none" xmlns="http://www.w3.org/2000/svg">
<path d="M20 28C24.1421 28 27.5 24.6421 27.5 20.5C27.5 16.3579 24.1421 13 20 13C15.8579 13 12.5 16.3579 12.5 20.5C12.5 24.6421 15.8579 28 20 28Z" stroke="#BBBBBB" stroke-width="2" stroke-linecap="round" stroke-linejoin="round"/>
<path d="M28.7034 10.6719C29.0992 11.0365 29.4742 11.4115 29.8284 11.7969L34.094 12.4062C34.789 13.6133 35.3247 14.9053 35.6877 16.25L33.094 19.7031C33.094 19.7031 33.1409 20.7656 33.094 21.2969L35.6877 24.75C35.3264 26.0953 34.7906 27.3875 34.094 28.5937L29.8284 29.2031C29.8284 29.2031 29.094 29.9687 28.7034 30.3281L28.094 34.5937C26.887 35.2888 25.5949 35.8245 24.2502 36.1875L20.7971 33.5937C20.2669 33.6406 19.7336 33.6406 19.2034 33.5937L15.7502 36.1875C14.405 35.8262 13.1127 35.2904 11.9065 34.5937L11.2971 30.3281C10.9117 29.9635 10.5367 29.5885 10.1721 29.2031L5.90649 28.5937C5.21147 27.3867 4.67576 26.0947 4.31274 24.75L6.90649 21.2969C6.90649 21.2969 6.85962 20.2344 6.90649 19.7031L4.31274 16.25C4.67407 14.9047 5.20987 13.6125 5.90649 12.4062L10.1721 11.7969C10.5367 11.4115 10.9117 11.0365 11.2971 10.6719L11.9065 6.40625C13.1135 5.71122 14.4055 5.17551 15.7502 4.8125L19.2034 7.40625C19.7336 7.35936 20.2669 7.35936 20.7971 7.40625L24.2502 4.8125C25.5955 5.17383 26.8877 5.70963 28.094 6.40625L28.7034 10.6719Z" stroke="#BBBBBB" stroke-width="2" stroke-linecap="round" stroke-linejoin="round"/>
</svg>
