<svg width="30" height="31" viewBox="0 0 30 31" fill="none" xmlns="http://www.w3.org/2000/svg">
<path d="M18.75 28.406V20.906C18.75 20.5745 18.6183 20.2565 18.3839 20.0221C18.1495 19.7877 17.8315 19.656 17.5 19.656H12.5C12.1685 19.656 11.8505 19.7877 11.6161 20.0221C11.3817 20.2565 11.25 20.5745 11.25 20.906V28.406C11.25 28.7375 11.1183 29.0554 10.8839 29.2899C10.6495 29.5243 10.3315 29.656 10 29.656H2.5C2.16848 29.656 1.85054 29.5243 1.61612 29.2899C1.3817 29.0554 1.25 28.7375 1.25 28.406V13.9528C1.2528 13.7799 1.29018 13.6092 1.35995 13.4509C1.42972 13.2925 1.53047 13.1498 1.65625 13.031L14.1562 1.6716C14.3867 1.46079 14.6877 1.34387 15 1.34387C15.3123 1.34387 15.6133 1.46079 15.8437 1.6716L28.3437 13.031C28.4695 13.1498 28.5703 13.2925 28.64 13.4509C28.7098 13.6092 28.7472 13.7799 28.75 13.9528V28.406C28.75 28.7375 28.6183 29.0554 28.3839 29.2899C28.1495 29.5243 27.8315 29.656 27.5 29.656H20C19.6685 29.656 19.3505 29.5243 19.1161 29.2899C18.8817 29.0554 18.75 28.7375 18.75 28.406Z" fill="#005678" stroke="#BBBBBB" stroke-width="2" stroke-linecap="round" stroke-linejoin="round"/>
</svg>
