<svg width="40" height="41" viewBox="0 0 40 41" fill="none" xmlns="http://www.w3.org/2000/svg">
<path d="M40 0.906006H0V40.906H40V0.906006Z" fill="white"/>
<path d="M23.75 33.406V25.906C23.75 25.5745 23.6183 25.2565 23.3839 25.0221C23.1495 24.7877 22.8315 24.656 22.5 24.656H17.5C17.1685 24.656 16.8505 24.7877 16.6161 25.0221C16.3817 25.2565 16.25 25.5745 16.25 25.906V33.406C16.25 33.7375 16.1183 34.0554 15.8839 34.2899C15.6495 34.5243 15.3315 34.656 15 34.656H7.5C7.16848 34.656 6.85054 34.5243 6.61612 34.2899C6.3817 34.0554 6.25 33.7375 6.25 33.406V18.9528C6.2528 18.7799 6.29018 18.6092 6.35995 18.4509C6.42972 18.2925 6.53047 18.1498 6.65625 18.031L19.1562 6.6716C19.3867 6.46079 19.6877 6.34387 20 6.34387C20.3123 6.34387 20.6133 6.46079 20.8437 6.6716L33.3437 18.031C33.4695 18.1498 33.5703 18.2925 33.64 18.4509C33.7098 18.6092 33.7472 18.7799 33.75 18.9528V33.406C33.75 33.7375 33.6183 34.0554 33.3839 34.2899C33.1495 34.5243 32.8315 34.656 32.5 34.656H25C24.6685 34.656 24.3505 34.5243 24.1161 34.2899C23.8817 34.0554 23.75 33.7375 23.75 33.406Z" fill="#005678" stroke="#BBBBBB" stroke-width="2" stroke-linecap="round" stroke-linejoin="round"/>
</svg>
