<svg width="40" height="41" viewBox="0 0 40 41" fill="none" xmlns="http://www.w3.org/2000/svg">
<path d="M23.75 33V25.5C23.75 25.1684 23.6183 24.8505 23.3839 24.6161C23.1495 24.3817 22.8315 24.25 22.5 24.25H17.5C17.1685 24.25 16.8505 24.3817 16.6161 24.6161C16.3817 24.8505 16.25 25.1684 16.25 25.5V33C16.25 33.3315 16.1183 33.6494 15.8839 33.8839C15.6495 34.1183 15.3315 34.25 15 34.25H7.5C7.16848 34.25 6.85054 34.1183 6.61612 33.8839C6.3817 33.6494 6.25 33.3315 6.25 33V18.5468C6.2528 18.3739 6.29018 18.2032 6.35995 18.0448C6.42972 17.8865 6.53047 17.7438 6.65625 17.625L19.1562 6.26559C19.3867 6.05478 19.6877 5.93787 20 5.93787C20.3123 5.93787 20.6133 6.05478 20.8437 6.26559L33.3437 17.625C33.4695 17.7438 33.5703 17.8865 33.64 18.0448C33.7098 18.2032 33.7472 18.3739 33.75 18.5468V33C33.75 33.3315 33.6183 33.6494 33.3839 33.8839C33.1495 34.1183 32.8315 34.25 32.5 34.25H25C24.6685 34.25 24.3505 34.1183 24.1161 33.8839C23.8817 33.6494 23.75 33.3315 23.75 33Z" stroke="#BFBFBF" stroke-width="2" stroke-linecap="round" stroke-linejoin="round"/>
</svg>
