<svg width="36" height="37" viewBox="0 0 36 37" fill="none" xmlns="http://www.w3.org/2000/svg">
<path d="M28.5 4.90601H7.5C5.84315 4.90601 4.5 6.24915 4.5 7.90601V28.906C4.5 30.5629 5.84315 31.906 7.5 31.906H28.5C30.1569 31.906 31.5 30.5629 31.5 28.906V7.90601C31.5 6.24915 30.1569 4.90601 28.5 4.90601Z" stroke="#01012B" stroke-width="2" stroke-linecap="round" stroke-linejoin="round"/>
<path d="M12.75 15.406C13.9926 15.406 15 14.3986 15 13.156C15 11.9134 13.9926 10.906 12.75 10.906C11.5074 10.906 10.5 11.9134 10.5 13.156C10.5 14.3986 11.5074 15.406 12.75 15.406Z" stroke="#01012B" stroke-width="2" stroke-linecap="round" stroke-linejoin="round"/>
<path d="M31.5 22.906L24 15.406L7.5 31.906" stroke="#01012B" stroke-width="2" stroke-linecap="round" stroke-linejoin="round"/>
</svg>
