<svg width="18" height="16" viewBox="0 0 18 16" fill="none" xmlns="http://www.w3.org/2000/svg">
<path d="M17.1172 5.25781C16.9398 5.0602 16.7231 4.90183 16.4809 4.79286C16.2387 4.68389 15.9765 4.62671 15.7109 4.625H11.5V3.375C11.4979 2.54683 11.168 1.75317 10.5824 1.16757C9.99683 0.581965 9.20317 0.252063 8.375 0.25C8.25889 0.250942 8.14522 0.283423 8.04614 0.34397C7.94706 0.404518 7.86631 0.490855 7.8125 0.59375L4.85938 6.5H1.5C1.16848 6.5 0.850537 6.6317 0.616116 6.86612C0.381696 7.10054 0.25 7.41848 0.25 7.75V14.625C0.25 14.9565 0.381696 15.2745 0.616116 15.5089C0.850537 15.7433 1.16848 15.875 1.5 15.875H14.7734C15.2295 15.8731 15.6694 15.7058 16.0114 15.404C16.3533 15.1023 16.5742 14.6867 16.6328 14.2344L17.5703 6.73438C17.6015 6.47028 17.5773 6.20259 17.4993 5.94836C17.4213 5.69413 17.2911 5.45895 17.1172 5.25781ZM1.5 7.75H4.625V14.625H1.5V7.75Z" fill="#FF2A6D"/>
</svg>
