<svg width="22" height="23" viewBox="0 0 22 23" fill="none" xmlns="http://www.w3.org/2000/svg">
<path d="M6 21.406H3C2.46957 21.406 1.96086 21.1953 1.58579 20.8202C1.21071 20.4451 1 19.9364 1 19.406V12.406C1 11.8756 1.21071 11.3669 1.58579 10.9918C1.96086 10.6167 2.46957 10.406 3 10.406H6M13 8.40601V4.40601C13 3.61036 12.6839 2.84729 12.1213 2.28469C11.5587 1.72208 10.7956 1.40601 10 1.40601L6 10.406V21.406H17.28C17.7623 21.4115 18.2304 21.2424 18.5979 20.93C18.9654 20.6176 19.2077 20.1829 19.28 19.706L20.66 10.706C20.7035 10.4194 20.6842 10.1267 20.6033 9.84826C20.5225 9.56983 20.3821 9.3123 20.1919 9.09352C20.0016 8.87474 19.7661 8.69994 19.5016 8.58122C19.2371 8.46251 18.9499 8.40272 18.66 8.40601H13Z" stroke="#01012B" stroke-width="2" stroke-linecap="round" stroke-linejoin="round"/>
</svg>
