<svg width="34" height="32" viewBox="0 0 34 32" fill="none" xmlns="http://www.w3.org/2000/svg">
<path d="M17 1.33337C15.8728 1.33337 14.7918 1.7548 13.9948 2.50495C13.1978 3.25509 12.75 4.27251 12.75 5.33337V16C12.75 17.0609 13.1978 18.0783 13.9948 18.8285C14.7918 19.5786 15.8728 20 17 20C18.1272 20 19.2082 19.5786 20.0052 18.8285C20.8022 18.0783 21.25 17.0609 21.25 16V5.33337C21.25 4.27251 20.8022 3.25509 20.0052 2.50495C19.2082 1.7548 18.1272 1.33337 17 1.33337V1.33337Z" stroke="#05D9E8" stroke-width="2" stroke-linecap="round" stroke-linejoin="round"/>
<path d="M26.9167 13.3334V16C26.9167 18.4754 25.8719 20.8494 24.0121 22.5997C22.1524 24.35 19.6301 25.3334 17 25.3334C14.3699 25.3334 11.8476 24.35 9.98785 22.5997C8.12812 20.8494 7.08333 18.4754 7.08333 16V13.3334" stroke="#05D9E8" stroke-width="2" stroke-linecap="round" stroke-linejoin="round"/>
<path d="M17 25.3334V30.6667" stroke="#05D9E8" stroke-width="2" stroke-linecap="round" stroke-linejoin="round"/>
<path d="M11.3333 30.6666H22.6667" stroke="#05D9E8" stroke-width="2" stroke-linecap="round" stroke-linejoin="round"/>
</svg>
