<svg width="16" height="17" viewBox="0 0 16 17" fill="none" xmlns="http://www.w3.org/2000/svg">
<path d="M14.8733 1.53223C13.5624 0.220294 12.5779 0.416675 12.5779 0.416675L7.07618 5.91897L0.918158 12.0768L0 16.4062L4.32989 15.488L10.4879 9.332L15.9896 3.8297C15.9896 3.8297 16.1859 2.84507 14.8733 1.53223ZM4.07262 14.9679L2.5963 15.2862C2.43291 14.9726 2.22124 14.6866 1.96904 14.4388C1.721 14.1866 1.43515 13.9747 1.12179 13.8106L1.43996 12.335L1.86722 11.9086C1.86722 11.9086 2.66993 11.925 3.57718 12.8323C4.48352 13.7378 4.50079 14.5425 4.50079 14.5425L4.07262 14.9679Z" fill="#6D737D"/>
</svg>
