<svg width="40" height="41" viewBox="0 0 40 41" fill="none" xmlns="http://www.w3.org/2000/svg">
<path d="M32.5 23.406H7.5C6.80964 23.406 6.25 23.9656 6.25 24.656V30.906C6.25 31.5964 6.80964 32.156 7.5 32.156H32.5C33.1904 32.156 33.75 31.5964 33.75 30.906V24.656C33.75 23.9656 33.1904 23.406 32.5 23.406Z" fill="#005678" stroke="#005678" stroke-width="2" stroke-linecap="round" stroke-linejoin="round"/>
<path d="M32.5 9.65601H7.5C6.80964 9.65601 6.25 10.2156 6.25 10.906V17.156C6.25 17.8464 6.80964 18.406 7.5 18.406H32.5C33.1904 18.406 33.75 17.8464 33.75 17.156V10.906C33.75 10.2156 33.1904 9.65601 32.5 9.65601Z" fill="#005678" stroke="#005678" stroke-width="2" stroke-linecap="round" stroke-linejoin="round"/>
</svg>
