<svg width="40" height="41" viewBox="0 0 40 41" fill="none" xmlns="http://www.w3.org/2000/svg">
<path d="M32.5 23H7.5C6.80964 23 6.25 23.5596 6.25 24.25V30.5C6.25 31.1904 6.80964 31.75 7.5 31.75H32.5C33.1904 31.75 33.75 31.1904 33.75 30.5V24.25C33.75 23.5596 33.1904 23 32.5 23Z" stroke="#BBBBBB" stroke-width="2" stroke-linecap="round" stroke-linejoin="round"/>
<path d="M32.5 9.25H7.5C6.80964 9.25 6.25 9.80964 6.25 10.5V16.75C6.25 17.4404 6.80964 18 7.5 18H32.5C33.1904 18 33.75 17.4404 33.75 16.75V10.5C33.75 9.80964 33.1904 9.25 32.5 9.25Z" stroke="#BBBBBB" stroke-width="2" stroke-linecap="round" stroke-linejoin="round"/>
</svg>
