<svg width="20" height="20" viewBox="0 0 20 20" fill="none" xmlns="http://www.w3.org/2000/svg">
<path d="M10 1.25L10.7071 0.542893C10.3166 0.152369 9.68342 0.152369 9.29289 0.542893L10 1.25ZM12.5741 5.23836C12.9647 5.62888 13.5978 5.62888 13.9884 5.23836C14.3789 4.84783 14.3789 4.21467 13.9884 3.82414L12.5741 5.23836ZM7.42586 5.23836L10.7071 1.95711L9.29289 0.542893L6.01164 3.82414L7.42586 5.23836ZM9.29289 1.95711L12.5741 5.23836L13.9884 3.82414L10.7071 0.542893L9.29289 1.95711Z" fill="#F5FCFF"/>
<path d="M9 10C9 10.5523 9.44772 11 10 11C10.5523 11 11 10.5523 11 10H9ZM11 10V1.25H9V10H11Z" fill="#F5FCFF"/>
<path d="M13.75 6.5C13.1977 6.5 12.75 6.94772 12.75 7.5C12.75 8.05228 13.1977 8.5 13.75 8.5V6.5ZM13.75 8.5H15.625V6.5H13.75V8.5ZM15.625 8.5C15.5255 8.5 15.4302 8.46049 15.3598 8.39017L16.774 6.97595C16.4693 6.6712 16.056 6.5 15.625 6.5V8.5ZM15.3598 8.39017C15.2895 8.31984 15.25 8.22445 15.25 8.125H17.25C17.25 7.69402 17.0788 7.2807 16.774 6.97595L15.3598 8.39017ZM15.25 8.125V16.25H17.25V8.125H15.25ZM15.25 16.25C15.25 16.1505 15.2895 16.0552 15.3598 15.9848L16.774 17.399C17.0788 17.0943 17.25 16.681 17.25 16.25H15.25ZM15.3598 15.9848C15.4302 15.9145 15.5255 15.875 15.625 15.875V17.875C16.056 17.875 16.4693 17.7038 16.774 17.399L15.3598 15.9848ZM15.625 15.875H4.375V17.875H15.625V15.875ZM4.375 15.875C4.47445 15.875 4.56984 15.9145 4.64017 15.9848L3.22595 17.399C3.5307 17.7038 3.94402 17.875 4.375 17.875V15.875ZM4.64017 15.9848C4.71049 16.0552 4.75 16.1505 4.75 16.25H2.75C2.75 16.681 2.9212 17.0943 3.22595 17.399L4.64017 15.9848ZM4.75 16.25V8.125H2.75V16.25H4.75ZM4.75 8.125C4.75 8.22446 4.71049 8.31984 4.64017 8.39017L3.22595 6.97595C2.92121 7.2807 2.75 7.69402 2.75 8.125H4.75ZM4.64017 8.39017C4.56984 8.46049 4.47446 8.5 4.375 8.5V6.5C3.94402 6.5 3.5307 6.67121 3.22595 6.97595L4.64017 8.39017ZM4.375 8.5H6.25V6.5H4.375V8.5Z" fill="#F5FCFF"/>
</svg>
