<svg width="20" height="20" viewBox="0 0 20 20" fill="none" xmlns="http://www.w3.org/2000/svg">
<path d="M5.83334 18.3333H3.33334C2.89131 18.3333 2.46739 18.1577 2.15483 17.8451C1.84227 17.5326 1.66667 17.1087 1.66667 16.6666V10.8333C1.66667 10.3913 1.84227 9.96734 2.15483 9.65478C2.46739 9.34222 2.89131 9.16663 3.33334 9.16663H5.83334M11.6667 7.49996V4.16663C11.6667 3.50358 11.4033 2.8677 10.9344 2.39886C10.4656 1.93002 9.82971 1.66663 9.16667 1.66663L5.83334 9.16663V18.3333H15.2333C15.6353 18.3378 16.0253 18.197 16.3316 17.9366C16.6379 17.6763 16.8397 17.314 16.9 16.9166L18.05 9.41663C18.0863 9.17776 18.0702 8.93386 18.0028 8.70184C17.9354 8.46981 17.8184 8.2552 17.6599 8.07289C17.5014 7.89057 17.3051 7.7449 17.0846 7.64597C16.8642 7.54705 16.6249 7.49722 16.3833 7.49996H11.6667Z" stroke="#F5FCFF" stroke-width="2" stroke-linecap="round" stroke-linejoin="round"/>
</svg>
